<svg width="45" height="45" viewBox="0 0 45 45" fill="none" xmlns="http://www.w3.org/2000/svg">
<path d="M44.5293 33.0167V29.0575L41.7278 28.5072C41.4634 27.4066 41.0275 26.3704 40.4486 25.427L42.0351 23.0544L39.2337 20.2529L36.861 21.8395C35.9177 21.2606 34.8886 20.8318 33.7808 20.5602L33.2306 17.7588H29.2714L28.7211 20.5602C27.6205 20.8247 26.5843 21.2606 25.6409 21.8395L23.2683 20.2529L20.4668 23.0544L22.0533 25.427C21.4745 26.3704 21.0457 27.3995 20.7741 28.5072L17.9727 29.0575V33.0167L20.7741 33.567C21.0385 34.6675 21.4745 35.7038 22.0533 36.6471L20.4668 39.0198L23.2683 41.8213L25.6409 40.2347C26.5843 40.8136 27.6134 41.2424 28.7211 41.5139L29.2785 44.3083H33.2377L33.788 41.5068C34.8886 41.2424 35.9248 40.8064 36.8682 40.2276L39.2408 41.8141L42.0423 39.0127L40.4557 36.64C41.0346 35.6967 41.4634 34.6675 41.735 33.5598L44.5293 33.0167ZM31.2581 36.9116C28.0136 36.9116 25.3836 34.2816 25.3836 31.0371C25.3836 27.7926 28.0136 25.1626 31.2581 25.1626C34.5026 25.1626 37.1326 27.7926 37.1326 31.0371C37.1326 34.2816 34.5098 36.9116 31.2581 36.9116Z" fill="#EE8B17"/>
<path d="M19.9032 35.5041C19.7316 35.061 19.3314 34.7394 18.8598 34.6465L17.7092 34.4178C17.0374 34.282 16.5586 33.696 16.5586 33.0171V29.7297C12.7423 28.2575 10.0338 24.5627 10.0338 20.2248C10.0338 14.5933 14.6004 10.0266 20.2319 10.0266C24.4841 10.0266 28.1289 12.6351 29.6582 16.3299H33.2458C33.9247 16.3299 34.5179 16.8159 34.6465 17.4805L34.8752 18.6311C34.9681 19.1028 35.2897 19.4958 35.7328 19.6745C35.8686 19.7316 36.0044 19.7817 36.1401 19.846C36.5761 20.039 37.0835 19.9818 37.4837 19.7174L38.4556 19.067C39.0202 18.6883 39.7777 18.7597 40.2637 19.2457L40.471 19.4529V17.9164C40.471 17.1946 39.8849 16.6086 39.1631 16.6086H36.1544C35.7399 14.7862 35.0253 13.0711 34.0534 11.5345L36.183 9.40487C36.6904 8.89747 36.6904 8.06847 36.183 7.56106L32.9028 4.28794C32.3954 3.78053 31.5663 3.78053 31.0589 4.28794L28.9293 6.41761C27.3928 5.44568 25.6847 4.73102 23.8552 4.31652V1.30782C23.8552 0.586018 23.2692 0 22.5474 0H17.9164C17.1946 0 16.6086 0.586018 16.6086 1.30782V4.31652C14.7862 4.73102 13.0711 5.44568 11.5345 6.41761L9.41202 4.28794C8.90461 3.78053 8.07561 3.78053 7.56821 4.28794L4.29508 7.56106C3.78768 8.06847 3.78768 8.89747 4.29508 9.40487L6.42476 11.5345C5.45282 13.0711 4.73817 14.7791 4.32367 16.6086H1.30782C0.586018 16.6086 0 17.1946 0 17.9164V22.5474C0 23.2692 0.586018 23.8552 1.30782 23.8552H4.31652C4.73102 25.6776 5.44568 27.3928 6.41761 28.9293L4.28794 31.0589C3.78053 31.5663 3.78053 32.3954 4.28794 32.9028L7.56106 36.1759C8.06847 36.6833 8.89747 36.6833 9.40487 36.1759L11.5345 34.0462C13.0711 35.0181 14.7791 35.7328 16.6086 36.1473V39.156C16.6086 39.8778 17.1946 40.4638 17.9164 40.4638H19.896L19.4672 40.035C18.9813 39.5491 18.9098 38.7987 19.2886 38.2269L19.9389 37.255C20.2033 36.8548 20.2605 36.3545 20.0675 35.9115C20.0175 35.7757 19.9603 35.6399 19.9032 35.5041Z" fill="#333333"/>
</svg>
