<svg width="45" height="45" viewBox="0 0 45 45" fill="none" xmlns="http://www.w3.org/2000/svg">
<path d="M43.828 18.8255L37.9127 13.916V1.10776C37.9127 0.962282 37.8841 0.818224 37.8284 0.683815C37.7727 0.549406 37.6911 0.427279 37.5883 0.32441C37.4854 0.221541 37.3633 0.139944 37.2289 0.0842807C37.0945 0.0286177 36.9504 -2.0315e-05 36.8049 1.0812e-08H30.7032C30.5577 -2.0315e-05 30.4137 0.0286177 30.2793 0.0842807C30.1449 0.139944 30.0227 0.221541 29.9199 0.32441C29.817 0.427279 29.7354 0.549406 29.6797 0.683815C29.6241 0.818224 29.5954 0.962282 29.5955 1.10776V7.00546L21.8937 0.615406C21.416 0.218255 20.8144 0.000821044 20.1933 0.000821044C19.5721 0.000821044 18.9705 0.218255 18.4929 0.615406L10.2072 7.49429C9.99857 7.66771 9.83057 7.88486 9.71512 8.13037C9.59966 8.37589 9.53956 8.64378 9.53906 8.91509V36.814C10.084 36.9434 10.5854 37.2135 10.9932 37.5975C11.401 37.9814 11.7009 38.4656 11.8629 39.0018C12.0248 39.5379 12.0433 40.1072 11.9163 40.6527C11.7893 41.1982 11.5213 41.7008 11.1392 42.1103L9.85904 43.4818C10.0286 43.7313 10.2567 43.9355 10.5234 44.0765C10.7901 44.2175 11.0872 44.291 11.3889 44.2907H40.0756V35.9102H27.7386C27.2443 35.9099 26.7703 35.7135 26.4209 35.3639C26.0714 35.0144 25.8749 34.5405 25.8747 34.0462V26.1334C25.8749 25.6391 26.0714 25.1652 26.4209 24.8157C26.7704 24.4662 27.2443 24.2698 27.7386 24.2695H40.0756V21.1817H42.977C43.2508 21.1817 43.518 21.0973 43.7422 20.9399C43.9663 20.7826 44.1365 20.5599 44.2296 20.3023C44.3226 20.0448 44.334 19.7648 44.2621 19.5005C44.1902 19.2362 44.0387 19.0005 43.828 18.8255Z" fill="#EE8B17"/>
<path d="M8.79925 39.1857H6.68037V5.10323H8.79925C8.94331 5.10323 9.08423 5.06115 9.2047 4.98215C9.32516 4.90315 9.41993 4.79069 9.47735 4.65857C9.53477 4.52645 9.55234 4.38043 9.52791 4.23846C9.50348 4.09649 9.43811 3.96475 9.33983 3.85943L5.95781 0.234944C5.88863 0.160807 5.80494 0.101694 5.71194 0.0612757C5.61894 0.0208577 5.51862 0 5.41722 0C5.31582 0 5.2155 0.0208577 5.1225 0.0612757C5.0295 0.101694 4.94581 0.160807 4.87662 0.234944L1.49457 3.85942C1.39629 3.96474 1.33092 4.09648 1.30649 4.23845C1.28206 4.38042 1.29963 4.52643 1.35705 4.65855C1.41447 4.79067 1.50924 4.90314 1.6297 4.98213C1.75017 5.06113 1.89108 5.10322 2.03514 5.10322H4.15407V8.37355C4.15407 8.56965 4.07617 8.75771 3.93751 8.89637C3.79885 9.03503 3.61079 9.11293 3.41469 9.11293H1.2631C0.928108 9.11293 0.606833 9.24601 0.369955 9.48289C0.133077 9.71977 0 10.041 0 10.376C0 10.711 0.133077 11.0323 0.369955 11.2692C0.606833 11.5061 0.928108 11.6391 1.2631 11.6391H3.41469C3.61079 11.6391 3.79885 11.717 3.93751 11.8557C4.07617 11.9944 4.15407 12.1824 4.15407 12.3785V14.2578C4.15407 14.4539 4.07617 14.642 3.93751 14.7807C3.79885 14.9193 3.61079 14.9972 3.41469 14.9972H2.27494C1.93995 14.9972 1.61868 15.1303 1.3818 15.3672C1.14493 15.6041 1.01185 15.9253 1.01185 16.2603C1.01185 16.5953 1.14493 16.9166 1.3818 17.1535C1.61868 17.3903 1.93995 17.5234 2.27494 17.5234H3.41469C3.51178 17.5234 3.60793 17.5425 3.69764 17.5797C3.78734 17.6168 3.86885 17.6713 3.93751 17.74C4.00617 17.8086 4.06063 17.8901 4.09779 17.9798C4.13494 18.0695 4.15407 18.1657 4.15407 18.2628V20.142C4.15407 20.2391 4.13494 20.3353 4.09779 20.425C4.06063 20.5147 4.00617 20.5962 3.93751 20.6649C3.86885 20.7335 3.78734 20.788 3.69764 20.8251C3.60793 20.8623 3.51178 20.8814 3.41469 20.8814H1.2631C0.928108 20.8814 0.606835 21.0145 0.369959 21.2514C0.133083 21.4883 6.70779e-06 21.8095 6.70779e-06 22.1445C6.70779e-06 22.4795 0.133083 22.8008 0.369959 23.0377C0.606835 23.2745 0.928108 23.4076 1.2631 23.4076H3.41469C3.61078 23.4076 3.79885 23.4855 3.93751 23.6242C4.07617 23.7628 4.15407 23.9509 4.15407 24.147V26.0263C4.15407 26.1234 4.13495 26.2196 4.09779 26.3093C4.06064 26.399 4.00617 26.4805 3.93752 26.5492C3.86886 26.6178 3.78735 26.6723 3.69764 26.7094C3.60793 26.7466 3.51179 26.7657 3.41469 26.7657H2.27494C2.10907 26.7657 1.94482 26.7984 1.79157 26.8619C1.63832 26.9253 1.49908 27.0184 1.38179 27.1357C1.2645 27.2529 1.17145 27.3922 1.10798 27.5454C1.0445 27.6987 1.01182 27.8629 1.01182 28.0288C1.01182 28.1947 1.0445 28.359 1.10798 28.5123C1.17145 28.6655 1.2645 28.8048 1.38179 28.9221C1.49908 29.0393 1.63832 29.1324 1.79157 29.1959C1.94482 29.2593 2.10907 29.292 2.27494 29.292H3.41469C3.51178 29.292 3.60793 29.3111 3.69764 29.3483C3.78734 29.3854 3.86885 29.4399 3.93751 29.5086C4.00617 29.5772 4.06063 29.6587 4.09779 29.7484C4.13494 29.8381 4.15407 29.9343 4.15407 30.0314V31.9105C4.15407 32.0076 4.13494 32.1038 4.09779 32.1935C4.06063 32.2832 4.00617 32.3647 3.93751 32.4333C3.86885 32.502 3.78734 32.5565 3.69764 32.5936C3.60793 32.6308 3.51178 32.6499 3.41469 32.6499H1.2631C1.09723 32.6499 0.932981 32.6826 0.779735 32.746C0.626489 32.8095 0.487247 32.9026 0.369959 33.0199C0.25267 33.1371 0.159633 33.2764 0.0961589 33.4296C0.0326845 33.5829 1.55489e-05 33.7471 1.87818e-05 33.913C1.55489e-05 34.0789 0.0326845 34.2432 0.0961589 34.3965C0.159633 34.5497 0.25267 34.6889 0.369959 34.8062C0.487247 34.9235 0.626489 35.0166 0.779735 35.08C0.932981 35.1435 1.09723 35.1762 1.2631 35.1762H3.41469C3.61078 35.1762 3.79885 35.2541 3.93751 35.3927C4.07617 35.5314 4.15407 35.7195 4.15407 35.9156V39.1857H2.03514C1.89108 39.1857 1.75016 39.2278 1.62969 39.3068C1.50923 39.3858 1.41446 39.4983 1.35704 39.6304C1.29962 39.7625 1.28205 39.9085 1.30648 40.0505C1.33091 40.1925 1.39628 40.3242 1.49457 40.4295L4.87662 44.0541C4.9458 44.1282 5.02949 44.1873 5.12249 44.2278C5.21549 44.2682 5.31581 44.2891 5.41722 44.2891C5.51862 44.2891 5.61894 44.2682 5.71194 44.2278C5.80494 44.1873 5.88863 44.1282 5.95781 44.0541L9.33987 40.4295C9.43815 40.3242 9.50352 40.1925 9.52795 40.0505C9.55238 39.9085 9.5348 39.7625 9.47738 39.6304C9.41995 39.4983 9.32518 39.3858 9.20471 39.3068C9.08424 39.2278 8.94331 39.1857 8.79925 39.1857Z" fill="#333333"/>
</svg>
