<svg width="37" height="48" viewBox="0 0 37 48" fill="none" xmlns="http://www.w3.org/2000/svg">
<path d="M17.7753 47.8128L16.7433 41.0209H13.6472L12.6152 47.8128H17.7775H17.7753ZM17.6361 41.0188L18.6721 47.8128H23.9933L20.8236 41.0209L17.6361 41.0188ZM11.7183 47.8128L12.7206 41.2193L12.6788 41.0191L9.56281 41.0211L6.39511 47.813L11.7183 47.8128ZM5.42079 47.8128L8.5885 41.0188H5.37309L0 47.8128H5.42079ZM21.8002 41.0209L24.9699 47.8128H29.9551C30.0664 47.8128 30.1619 47.7335 30.1857 47.6245L30.1977 47.565L25.0134 41.0207L21.8002 41.0209ZM5.66768 40.1383H24.7217V39.0638C24.7177 38.473 24.2385 37.9953 23.6459 37.9913H6.74571C6.15312 37.9973 5.67389 38.4731 5.66794 39.0638L5.66768 40.1383ZM16.0558 0.35882C15.8271 0.130839 15.5169 0.00198434 15.1948 0C14.5227 0.00396512 13.9798 0.547139 13.9778 1.21522V37.1094H16.4158L16.4138 1.21522C16.4138 0.894063 16.2845 0.586775 16.0558 0.360784L16.0558 0.35882Z" fill="#EE8B17"/>
<path d="M23.6013 25.9826H34.9102C35.5592 25.9524 36.0689 25.4022 36.0689 24.7352C36.0689 24.0682 35.5592 23.518 34.9102 23.4878H21.174L23.6013 25.9826ZM30.3816 46.9744L34.5617 26.8813H24.476L31.4382 34.0371C32.0068 34.6215 32.0068 35.5706 31.4382 36.155C30.8696 36.7394 29.9461 36.7394 29.3776 36.155L20.3565 26.881H17.4273V37.4808H23.6858C24.7524 37.4849 25.617 38.3716 25.6209 39.4678V40.7736L28.6423 44.7092L30.3816 46.9744ZM13.277 37.4807V26.8809H10.7321L12.4006 34.8972V34.8992L12.9378 37.4786L13.277 37.4807ZM17.4279 25.9822H19.4807L18.6631 25.1399C18.2416 24.7066 18.12 24.0496 18.3592 23.4874H17.4279L17.4279 25.9822ZM13.2773 25.9822V23.4874H10.3853C9.73632 23.5177 9.22656 24.0678 9.22656 24.7348C9.22656 25.4019 9.73632 25.952 10.3853 25.9822L13.2773 25.9822ZM23.114 26.7519L23.1081 26.7458L20.1064 23.6566C20.0103 23.5619 19.8868 23.5014 19.7535 23.4873H19.6358C19.5025 23.5014 19.379 23.5619 19.2829 23.6566C19.0555 23.8924 19.0555 24.2712 19.2829 24.507L20.8495 26.1171L29.9961 35.5159C30.1059 35.6288 30.2529 35.6913 30.4078 35.6913C30.5627 35.6892 30.7117 35.6268 30.8215 35.5159C31.045 35.2802 31.045 34.9053 30.8215 34.6696L23.114 26.7519Z" fill="#333333"/>
</svg>
