<svg width="50" height="35" viewBox="0 0 50 35" fill="none" xmlns="http://www.w3.org/2000/svg">
<path d="M45.5187 7.02616C45.3504 6.56435 45.0406 6.16531 44.632 5.88408C44.2234 5.60286 43.7363 5.45331 43.2376 5.45606H35.1415C34.7579 5.45592 34.3864 5.58837 34.092 5.83027C33.7975 6.07218 33.5988 6.40817 33.5304 6.77957L30.7584 21.6502H33.0957C34.0404 21.2387 35.0622 21.0262 36.0953 21.0262C37.1285 21.0262 38.1502 21.2387 39.0949 21.6502H48.5874C48.7623 21.6518 48.9355 21.6842 49.0988 21.7458V17.6193C49.0993 16.9682 48.9815 16.3223 48.751 15.712L45.5187 7.02616ZM45.3653 16.0844C45.2082 16.2988 45.0003 16.4723 44.7597 16.5898C44.519 16.7073 44.2529 16.7653 43.9844 16.7587H37.5197C37.0852 16.7587 36.6684 16.5892 36.3606 16.2874C36.0529 15.9855 35.8793 15.5759 35.878 15.1484V9.64801C35.878 9.21959 36.0509 8.80871 36.3588 8.50576C36.6667 8.20282 37.0843 8.03263 37.5197 8.03263H41.9386C42.2733 8.03386 42.5997 8.13574 42.8739 8.32463C43.1482 8.51351 43.3572 8.78037 43.4729 9.08942L45.5187 14.5797C45.613 14.823 45.6461 15.0851 45.6149 15.3437C45.5837 15.6022 45.4893 15.8495 45.3397 16.0643L45.3653 16.0844ZM44.5981 14.9571C44.6258 15.0484 44.631 15.1449 44.6132 15.2386C44.5954 15.3322 44.5552 15.4203 44.4958 15.4956C44.4389 15.5768 44.3624 15.6428 44.2731 15.6876C44.1838 15.7324 44.0846 15.7546 43.9844 15.7523H37.5197C37.3564 15.7523 37.1998 15.6888 37.0839 15.5757C36.968 15.4626 36.9022 15.309 36.9008 15.1484V9.64801C36.9022 9.48739 36.968 9.3338 37.0839 9.2207C37.1998 9.10759 37.3564 9.04413 37.5197 9.04413H41.9386C42.0646 9.04462 42.1874 9.08295 42.2907 9.15399C42.394 9.22503 42.4728 9.32541 42.5165 9.44169L44.5981 14.9571ZM28.9376 22.6566H31.4488C30.6134 23.3259 29.9403 24.17 29.4784 25.1277C29.0166 26.0853 28.7777 27.1323 28.7791 28.1922C28.7791 28.3633 28.7791 28.5294 28.7791 28.6955H23.1532H20.2891C20.2891 28.5244 20.2891 28.3533 20.2891 28.1922C20.2857 26.4046 19.6067 24.682 18.3842 23.3597C17.1616 22.0373 15.4828 21.2097 13.6744 21.0377C11.866 20.8657 10.0573 21.3617 8.59993 22.4292C7.14261 23.4967 6.1409 25.0594 5.78966 26.8134C5.78966 26.909 5.75385 27.0046 5.73851 27.1052L3.36029 26.2699L1.53443 25.7515C1.0948 25.6311 0.707117 25.3728 0.430209 25.0159C0.153302 24.6589 0.00229275 24.2229 0.000100358 23.7738V21.006C0.000100358 20.8726 0.0539847 20.7446 0.149899 20.6502C0.245814 20.5558 0.375902 20.5028 0.511545 20.5028H28.728C28.8036 20.5016 28.8786 20.5169 28.9475 20.5476C29.0165 20.5784 29.0776 20.6238 29.1265 20.6806C29.1754 20.7374 29.2109 20.8042 29.2305 20.8761C29.25 20.9481 29.253 21.0234 29.2394 21.0966L28.9376 22.6566ZM43.386 28.7408C43.3962 28.5614 43.3962 28.3816 43.386 28.2023C43.3864 27.144 43.1486 26.0987 42.6896 25.1416C42.2307 24.1845 41.562 23.3393 40.7316 22.6667H48.5874C48.723 22.6667 48.8531 22.7197 48.949 22.8141C49.0449 22.9085 49.0988 23.0365 49.0988 23.1699V26.2246C49.0988 26.8919 48.8294 27.5319 48.3498 28.0038C47.8702 28.4757 47.2198 28.7408 46.5416 28.7408H43.386ZM13.5636 16.8292V9.28065C13.5635 9.08122 13.6426 8.88965 13.784 8.74677C13.9254 8.60388 14.1179 8.52098 14.3206 8.51573C14.5267 8.51573 14.7245 8.59632 14.8703 8.73977C15.016 8.88322 15.098 9.07778 15.098 9.28065V16.8292C15.0681 17.0082 14.9746 17.171 14.8341 17.2885C14.6936 17.4059 14.5152 17.4704 14.3308 17.4704C14.1464 17.4704 13.968 17.4059 13.8275 17.2885C13.687 17.171 13.5934 17.0082 13.5636 16.8292ZM20.4374 16.8292V9.28065C20.4374 9.12903 20.4831 8.98082 20.5689 8.85484C20.6546 8.72885 20.7765 8.63078 20.919 8.57308C21.0615 8.51538 21.2182 8.50065 21.3692 8.53076C21.5202 8.56087 21.6588 8.63446 21.7672 8.74219C21.8393 8.81265 21.8963 8.89658 21.935 8.98905C21.9736 9.08153 21.9931 9.18067 21.9922 9.28065V16.8292C21.9624 17.0082 21.8689 17.171 21.7284 17.2885C21.5878 17.4059 21.4094 17.4704 21.2251 17.4704C21.0407 17.4704 20.8623 17.4059 20.7218 17.2885C20.5812 17.171 20.4877 17.0082 20.4579 16.8292H20.4374ZM28.728 19.4963C28.997 19.4979 29.2611 19.5672 29.4951 19.6976L32.0523 6.11027C32.1373 5.63949 32.3899 5.21385 32.7647 4.90957C33.1395 4.60528 33.6122 4.44222 34.0981 4.44959H36.057C36.6565 4.44959 37.2315 4.21525 37.6554 3.79811C38.0794 3.38097 38.3175 2.81521 38.3175 2.22529C38.3175 1.63537 38.0794 1.06961 37.6554 0.652476C37.2315 0.235339 36.6565 0.000993377 36.057 0.000993377H31.7097C31.2938 -0.0112517 30.8827 0.0899107 30.5216 0.293293C30.1606 0.496676 29.8637 0.794353 29.6639 1.1534L28.3086 3.60919C28.1954 3.81351 28.0283 3.984 27.8248 4.10268C27.6214 4.22136 27.3892 4.28384 27.1527 4.28353H2.09191C1.81572 4.28285 1.54214 4.33612 1.28704 4.44026C1.03193 4.54441 0.800377 4.69734 0.605797 4.8902C0.411216 5.08306 0.257483 5.31201 0.153509 5.56378C0.0495359 5.81554 -0.00260825 6.08511 0.000100358 6.35685V19.5869C0.16375 19.527 0.336945 19.4964 0.511545 19.4963H28.728ZM19.435 9.27562C19.4364 8.80623 19.6265 8.35644 19.9638 8.02453C20.3011 7.69261 20.7582 7.50556 21.2353 7.50423C21.7079 7.51339 22.1583 7.70358 22.4907 8.03437C22.8231 8.36517 23.0112 8.81047 23.0151 9.27562V16.8241C22.9678 17.2588 22.7589 17.6609 22.4284 17.9531C22.0979 18.2453 21.6693 18.407 21.2251 18.407C20.7808 18.407 20.3522 18.2453 20.0217 17.9531C19.6913 17.6609 19.4823 17.2588 19.435 16.8241V9.27562ZM12.5612 9.27562C12.5611 8.81271 12.7451 8.36815 13.0739 8.03708C13.4028 7.70601 13.8502 7.51475 14.3206 7.50423C14.7976 7.50556 15.2547 7.69261 15.5921 8.02453C15.9294 8.35644 16.1195 8.80623 16.1208 9.27562V16.8241C16.0735 17.2588 15.8646 17.6609 15.5341 17.9531C15.2037 18.2453 14.7751 18.407 14.3308 18.407C13.8865 18.407 13.4579 18.2453 13.1274 17.9531C12.797 17.6609 12.588 17.2588 12.5407 16.8241L12.5612 9.27562ZM5.68225 9.27562C5.68264 8.92594 5.78851 8.58425 5.98643 8.29382C6.18435 8.0034 6.46543 7.77731 6.79405 7.6442C7.12267 7.51108 7.48406 7.47694 7.83242 7.54609C8.18078 7.61524 8.50045 7.78457 8.75092 8.03263C8.91521 8.19643 9.04497 8.39058 9.13274 8.60389C9.22051 8.81721 9.26457 9.04549 9.26237 9.27562V16.8241C9.21507 17.2588 9.0061 17.6609 8.67564 17.9531C8.34519 18.2453 7.91659 18.407 7.47231 18.407C7.02802 18.407 6.59943 18.2453 6.26898 17.9531C5.93852 17.6609 5.72955 17.2588 5.68225 16.8241V9.27562ZM6.70514 16.8241V9.27562C6.7051 9.124 6.75085 8.97579 6.83659 8.8498C6.92233 8.72382 7.04419 8.62575 7.18668 8.56805C7.32918 8.51035 7.48589 8.49562 7.63692 8.52572C7.78794 8.55583 7.92647 8.62943 8.0349 8.73716C8.107 8.80761 8.16405 8.89155 8.2027 8.98402C8.24135 9.07649 8.26081 9.17564 8.25993 9.27562V16.8241C8.23012 17.0032 8.1366 17.166 7.99607 17.2834C7.85554 17.4009 7.67716 17.4654 7.49277 17.4654C7.30838 17.4654 7.12999 17.4009 6.98946 17.2834C6.84893 17.166 6.75541 17.0032 6.7256 16.8241H6.70514Z" fill="#EE8B17"/>
<path d="M15.1011 28.7359C15.1021 29.0345 15.0093 29.3267 14.8345 29.5755C14.6597 29.8242 14.4107 30.0182 14.1192 30.1329C13.8276 30.2477 13.5066 30.2779 13.1968 30.2199C12.8871 30.1619 12.6025 30.0182 12.3792 29.807C12.1559 29.5958 12.004 29.3267 11.9426 29.0337C11.8813 28.7408 11.9133 28.4372 12.0346 28.1615C12.1559 27.8857 12.361 27.6503 12.624 27.485C12.887 27.3196 13.196 27.2319 13.5118 27.2329C13.9329 27.2341 14.3363 27.3929 14.6341 27.6745C14.9318 27.9561 15.0997 28.3377 15.1011 28.7359ZM13.5118 22.7529C12.2614 22.7529 11.0391 23.1033 9.99924 23.7599C8.95935 24.4165 8.14849 25.3497 7.66907 26.4418C7.18965 27.5339 7.06317 28.7359 7.30561 29.896C7.54805 31.056 8.14853 32.1221 9.03121 32.9596C9.9139 33.7971 11.0392 34.3685 12.265 34.6015C13.4908 34.8345 14.7622 34.7188 15.9185 34.269C17.0748 33.8191 18.0643 33.0553 18.7619 32.074C19.4595 31.0927 19.834 29.9378 19.838 28.7553C19.8401 27.9682 19.678 27.1884 19.361 26.4605C19.0441 25.7327 18.5785 25.0711 17.9909 24.5136C17.4033 23.9561 16.7053 23.5136 15.9367 23.2115C15.1681 22.9094 14.3441 22.7536 13.5118 22.7529ZM13.5118 31.2166C12.9928 31.2176 12.4851 31.0729 12.0531 30.8009C11.621 30.5289 11.284 30.1418 11.0847 29.6886C10.8854 29.2354 10.8327 28.7364 10.9333 28.2549C11.034 27.7734 11.2834 27.3309 11.65 26.9835C12.0167 26.636 12.484 26.3993 12.993 26.3032C13.502 26.2071 14.0297 26.2559 14.5093 26.4435C14.9889 26.6311 15.3988 26.9491 15.6873 27.3572C15.9757 27.7652 16.1297 28.245 16.1297 28.7359C16.1311 29.0621 16.0644 29.3853 15.9335 29.6871C15.8026 29.9889 15.6101 30.2633 15.3669 30.4946C15.1237 30.7259 14.8347 30.9096 14.5164 31.0352C14.1981 31.1608 13.8567 31.2257 13.5118 31.2264V31.2166ZM38.3231 28.7359C38.3241 29.0345 38.2313 29.3267 38.0565 29.5755C37.8817 29.8242 37.6328 30.0182 37.3412 30.1329C37.0496 30.2477 36.7286 30.2779 36.4189 30.2199C36.1091 30.1619 35.8245 30.0182 35.6012 29.807C35.3779 29.5958 35.226 29.3267 35.1646 29.0337C35.1033 28.7408 35.1353 28.4372 35.2566 28.1615C35.3779 27.8857 35.5831 27.6503 35.8461 27.485C36.109 27.3196 36.418 27.2319 36.7338 27.2329C37.1549 27.2341 37.5583 27.3929 37.8561 27.6745C38.1539 27.9561 38.3217 28.3377 38.3231 28.7359ZM39.6501 23.4436C38.7521 23.0121 37.7591 22.7872 36.7518 22.7872C35.7446 22.7872 34.7515 23.0121 33.8535 23.4436C32.8615 23.9343 32.025 24.6651 31.4293 25.5615C30.8335 26.4579 30.5 27.4877 30.4627 28.5459C30.4254 29.604 30.6856 30.6526 31.2169 31.5845C31.7482 32.5164 32.5314 33.2984 33.4866 33.8504C34.4419 34.4025 35.5349 34.705 36.6541 34.727C37.7734 34.7489 38.8787 34.4896 39.8574 33.9755C40.836 33.4614 41.6529 32.7109 42.2246 31.8007C42.7963 30.8904 43.1023 29.853 43.1115 28.7943V28.7602C43.1115 27.6578 42.7879 26.5771 42.1768 25.6384C41.5656 24.6997 40.6909 23.9399 39.6501 23.4436ZM36.7338 31.2264C36.2148 31.2273 35.7071 31.0826 35.2751 30.8106C34.8431 30.5386 34.506 30.1515 34.3067 29.6983C34.1074 29.2451 34.0547 28.7462 34.1553 28.2646C34.256 27.7831 34.5054 27.3406 34.872 26.9932C35.2387 26.6458 35.7061 26.409 36.215 26.3129C36.724 26.2168 37.2517 26.2656 37.7313 26.4532C38.2109 26.6409 38.6209 26.9588 38.9093 27.3669C39.1978 27.7749 39.3517 28.2548 39.3517 28.7456C39.3504 29.4023 39.0743 30.0318 38.5838 30.4966C38.0933 30.9614 37.4282 31.2238 36.7338 31.2264Z" fill="#333333"/>
</svg>
