<svg width="37" height="45" viewBox="0 0 37 45" fill="none" xmlns="http://www.w3.org/2000/svg">
<path d="M11.0267 43.3032C10.7481 42.8181 10.6017 42.2668 10.6017 41.7074V29.3258C10.6037 27.5576 12.0331 26.1241 13.8014 26.1181H18.8855L20.0162 23.3675C20.1405 23.0648 20.4352 22.8684 20.7619 22.8704H28.2597C28.5865 22.8663 28.8831 23.0648 29.0054 23.3675L30.1201 26.1181C31.1746 26.1141 34.262 26.1201 35.2842 26.1181V10.4247H27.634C27.604 10.4267 27.5739 10.4247 27.5458 10.4167C28.1031 10.533 27.187 10.3806 27.0246 10.2723C25.8298 9.80521 25.0439 8.65248 25.0439 7.36942C25.0419 6.25875 25.0459 1.0244 25.0439 0H3.4242C1.53568 0.00400933 0.00400317 1.53568 0 3.4242V41.483C0.00400984 43.3715 1.53568 44.9032 3.4242 44.9072H13.8011C12.6564 44.9092 11.596 44.2976 11.0267 43.3032ZM27.9714 10.4808C28.1879 10.4929 27.9093 10.4989 27.819 10.4728C27.8671 10.4728 27.9233 10.4808 27.9714 10.4808Z" fill="#EE8B17"/>
<path d="M27.4163 8.68447C27.6489 8.81077 27.9055 8.87894 28.1702 8.88495H32.5807L32.5166 8.8208H34.7539L26.6465 0.472656V7.36939C26.6485 7.9147 26.9432 8.41585 27.4163 8.68447Z" fill="#EE8B17"/>
<path d="M35.2216 27.7224H29.6726C29.4901 27.7384 29.3057 27.6943 29.1513 27.5941C29.015 27.5039 28.9108 27.3756 28.8466 27.2252L27.7239 24.4746H21.3004L20.1697 27.2252C20.0915 27.4136 19.9452 27.564 19.7607 27.6502C19.6324 27.7063 19.4921 27.7324 19.3517 27.7224H13.8027C12.9186 27.7264 12.2049 28.4421 12.2069 29.3262V41.7078C12.2069 42.1308 12.3753 42.5378 12.674 42.8365C12.9727 43.1352 13.3797 43.3036 13.8027 43.3036H35.2217C36.0998 43.3016 36.8115 42.5859 36.8095 41.7078V29.3262C36.8115 28.4461 36.1017 27.7284 35.2216 27.7224ZM24.508 41.5795C21.162 41.5775 18.4473 38.863 18.4457 35.5173C18.7324 27.4801 30.29 27.4899 30.5789 35.5173C30.5729 38.8652 27.8559 41.578 24.508 41.5795Z" fill="#333333"/>
<path d="M24.5058 31.0498C18.6155 31.2362 18.6098 39.7926 24.5058 39.9753C30.412 39.7889 30.4038 31.2387 24.5058 31.0498ZM24.5058 33.6721C23.4873 33.6721 22.6613 34.4981 22.6613 35.5165C22.6613 35.9596 22.3025 36.3184 21.8594 36.3184C21.4164 36.3184 21.0575 35.9596 21.0575 35.5165C21.0595 33.614 22.6032 32.0703 24.5058 32.0683C24.9428 32.0763 25.2937 32.4331 25.2937 32.8702C25.2937 33.3072 24.9428 33.6641 24.5058 33.6721Z" fill="#333333"/>
</svg>
