<svg width="45" height="45" viewBox="0 0 45 45" fill="none" xmlns="http://www.w3.org/2000/svg">
<path d="M36.9068 24.3262L29.3574 29.3597V35.329C29.3574 37.8909 30.6353 40.276 32.7645 41.6954L36.9068 44.458L41.0492 41.6954C43.1784 40.2758 44.4563 37.8907 44.4563 35.329V29.3597L36.9068 24.3262ZM41.2143 32.5057L37.188 37.5392C37.011 37.7614 36.7456 37.901 36.4586 37.9167H36.4036C36.1362 37.9167 35.8806 37.8105 35.6938 37.6198L33.1773 35.1031C32.7802 34.7098 32.7802 34.0767 33.1773 33.6834C33.5705 33.2863 34.2036 33.2863 34.5968 33.6834L36.319 35.4059L39.6455 31.2473C39.9935 30.8147 40.6265 30.744 41.059 31.092C41.4916 31.44 41.5623 32.0731 41.2143 32.5057Z" fill="#333333"/>
<path d="M26.0039 8.20828V2.5166L31.8757 9.22719H26.8949C26.4041 9.22719 26.0039 8.76948 26.0039 8.20828Z" fill="#EE8B17"/>
<path d="M5.87109 5.87207H18.4535V9.22737H5.87109V5.87207Z" fill="#EE8B17"/>
<path d="M34.3918 24.5599V10.8674H26.5308C24.9053 10.8674 23.5829 9.53795 23.5829 7.90359V0H1.96525C0.879005 0 0 0.883769 0 1.9759V42.4818C0 43.5739 0.879005 44.4577 1.96525 44.4577H32.4265C32.8641 44.4577 33.271 44.3091 33.6011 44.0621L31.9851 42.9796C29.494 41.3105 28.0047 38.5088 28.0047 35.4969V28.8436L34.3918 24.5599ZM3.93049 5.92769C3.93049 4.83556 4.80949 3.95179 5.89573 3.95179H18.6698C19.7561 3.95179 20.6351 4.83556 20.6351 5.92769V8.89154C20.6351 9.98366 19.7561 10.8674 18.6698 10.8674H5.89573C4.80949 10.8674 3.93049 9.98366 3.93049 8.89154V5.92769ZM4.91311 13.8313H29.4787C30.0199 13.8313 30.4613 14.2751 30.4613 14.8192C30.4613 15.3634 30.0199 15.8072 29.4787 15.8072H4.91311C4.37188 15.8072 3.93049 15.3634 3.93049 14.8192C3.93049 14.2751 4.3719 13.8313 4.91311 13.8313ZM4.91311 18.771H29.4787C30.0199 18.771 30.4613 19.2148 30.4613 19.759C30.4613 20.3031 30.0199 20.7469 29.4787 20.7469H4.91311C4.37188 20.7469 3.93049 20.3031 3.93049 19.759C3.93049 19.2148 4.3719 18.771 4.91311 18.771ZM15.4321 37.7446C14.6951 38.4913 12.1445 40.8473 10.2792 40.0716C9.32538 39.6761 8.84365 38.6592 8.84365 37.048C8.84365 36.7952 8.8283 36.608 8.80911 36.4749C8.11626 36.9437 6.78053 38.4797 5.72883 40.0658C5.54267 40.3514 5.22794 40.5057 4.91316 40.5057C4.72699 40.5057 4.53508 40.4517 4.36809 40.3379C3.91516 40.0369 3.79233 39.4232 4.09749 38.9698C5.65588 36.6177 7.85524 33.9219 9.51715 34.4295C10.8088 34.8193 10.8088 36.4999 10.8088 37.048C10.8088 38.0359 11.0352 38.2482 11.0352 38.2482C11.3883 38.4006 12.8488 37.5516 14.0464 36.3514C14.4303 35.9616 15.0482 35.9616 15.4321 36.3514C15.8197 36.7373 15.8198 37.3587 15.4321 37.7446ZM22.109 30.6264H4.91311C4.37188 30.6264 3.93049 30.1826 3.93049 29.6385C3.93049 29.0943 4.3719 28.6505 4.91311 28.6505H22.109C22.6502 28.6505 23.0916 29.0943 23.0916 29.6385C23.0916 30.1826 22.6502 30.6264 22.109 30.6264ZM4.91311 25.6867C4.37188 25.6867 3.93049 25.2429 3.93049 24.6987C3.93049 24.1546 4.3719 23.7108 4.91311 23.7108H29.4787C30.0199 23.7108 30.4613 24.1546 30.4613 24.6987C30.4613 25.2429 30.0199 25.6867 29.4787 25.6867H4.91311Z" fill="#EE8B17"/>
</svg>
