<svg width="24" height="24" viewBox="0 0 24 24" fill="none" xmlns="http://www.w3.org/2000/svg">
<path fill-rule="evenodd" clip-rule="evenodd" d="M12.206 21.5709C10.2673 21.5763 8.37041 21.0195 6.75414 19.9706L2.94298 21.16L4.17903 17.5559C2.95128 15.9144 2.28899 13.9325 2.28817 11.8975C2.28673 11.5868 2.30392 11.2764 2.33967 10.9677C2.59415 8.56132 3.75576 6.33452 5.5973 4.72279C7.43883 3.11107 9.82784 2.23034 12.2971 2.25288C14.7663 2.27541 17.1382 3.19958 18.9487 4.84463C20.7593 6.48969 21.8784 8.7373 22.0871 11.1479C22.0871 11.4002 22.0871 11.6452 22.0871 11.8687C22.089 14.4387 21.0493 16.9043 19.1965 18.7236C17.3436 20.5429 14.8293 21.567 12.206 21.5709ZM23.9779 11.638C24.0062 8.57928 22.7931 5.63479 20.6054 3.45233C18.4178 1.26986 15.4348 0.0281942 12.3127 0.00047423C9.19059 -0.0272457 6.18511 1.16125 3.95744 3.30452C1.72977 5.44778 0.462384 8.37024 0.43409 11.429C0.43409 11.5948 0.43409 11.7606 0.43409 11.9264C0.431105 14.0163 1.01665 16.0665 2.1263 17.8515L0 24L6.52606 21.9673C8.31639 22.9241 10.329 23.4107 12.3681 23.3796C14.4073 23.3486 16.4035 22.801 18.1626 21.7902C19.9217 20.7793 21.3839 19.3397 22.4068 17.6112C23.4297 15.8827 23.9786 13.9242 24 11.9264C24 11.8326 24 11.7317 24 11.638H23.9779Z" fill="white"/>
<path fill-rule="evenodd" clip-rule="evenodd" d="M17.3851 14.7769C17.0843 14.6281 15.633 13.921 15.3623 13.8317C15.0916 13.7424 14.8961 13.6829 14.6931 13.9731C14.4901 14.2634 13.9412 14.9183 13.7607 15.1118C13.5802 15.3053 13.4148 15.3276 13.114 15.1788C12.2435 14.8406 11.4394 14.3545 10.7378 13.7424C10.0949 13.1557 9.5426 12.4787 9.09859 11.733C9.06784 11.6862 9.04675 11.6338 9.03653 11.5788C9.02632 11.5238 9.02717 11.4674 9.03905 11.4128C9.05093 11.3582 9.0736 11.3064 9.10575 11.2604C9.13791 11.2145 9.17892 11.1753 9.22642 11.1451C9.36177 11.0112 9.51968 10.8028 9.67759 10.6316L9.78287 10.4976C9.85176 10.3844 9.91451 10.2677 9.97085 10.1479C10.0123 10.0698 10.034 9.983 10.034 9.89483C10.034 9.80666 10.0123 9.71982 9.97085 9.6418C9.89566 9.49295 9.30162 8.06406 9.05348 7.48357C8.80533 6.90308 8.56471 7.00727 8.38424 7.00727C8.20377 7.00727 8.0233 7.00727 7.82028 7.00727C7.67049 7.01151 7.52317 7.04605 7.38739 7.10876C7.2516 7.17148 7.13022 7.26104 7.03073 7.37194C6.6979 7.68156 6.43428 8.05674 6.25685 8.47332C6.07942 8.8899 5.99212 9.33864 6.00056 9.79064C6.00542 10.1258 6.05601 10.4587 6.15095 10.7805C6.38208 11.5068 6.741 12.187 7.2112 12.7898C7.35407 12.9833 9.24898 16.0123 12.2568 17.1807C15.2646 18.3491 15.2646 17.9249 15.806 17.9249C16.2168 17.8483 16.6063 17.6859 16.9486 17.4484C17.2909 17.211 17.5781 16.9041 17.7911 16.5481C17.9974 16.0957 18.0527 15.59 17.949 15.1044C17.8738 14.9853 17.6783 14.9109 17.3851 14.7695V14.7769Z" fill="white"/>
</svg>
